<?xml version="1.0" encoding="utf-8"?>
<svg id="master-artboard" viewBox="0 0 980.3414916992188 793.2797241210938" version="1.1" xmlns="http://www.w3.org/2000/svg" x="0px" y="0px" style="enable-background:new 0 0 1400 980;" width="980.3414916992188px" height="793.2797241210938px"><rect id="ee-background" x="0" y="0" width="980.3414916992188" height="793.2797241210938" style="fill: white; fill-opacity: 0; pointer-events: none;"/><g transform="matrix(4.324438571929932, 0, 0, 4.324438571929932, 1.09515380859375, -93.36013793945314)"><path d="M6.374,165.281H80.65v14.559l-8.985,16.408c-0.246,0.449-0.375,0.954-0.375,1.466v4.069c0,1.686,1.367,3.052,3.052,3.052&#10;&#9;h77.936c1.686,0,3.052-1.367,3.052-3.052v-4.069c0-0.512-0.129-1.017-0.375-1.466l-8.985-16.408v-14.559h74.276&#10;&#9;c3.522,0,6.374-2.855,6.374-6.374V28.157c0-3.52-2.853-6.374-6.374-6.374H6.374C2.853,21.783,0,24.637,0,28.157v130.751&#10;&#9;C0,162.427,2.853,165.281,6.374,165.281z M18.739,38.045H207.88v110.973H18.739V38.045z"/><g>
</g><g>
</g><g>
</g><g>
</g><g>
</g><g>
</g><g>
</g><g>
</g><g>
</g><g>
</g><g>
</g><g>
</g><g>
</g><g>
</g><g>
</g></g></svg>